<?xml version="1.0" encoding="utf-8"?>
<!-- Generator: Adobe Illustrator 26.3.1, SVG Export Plug-In . SVG Version: 6.00 Build 0)  -->
<svg version="1.1" xmlns="http://www.w3.org/2000/svg" xmlns:xlink="http://www.w3.org/1999/xlink" x="0px" y="0px"
	 viewBox="0 0 600 600" style="enable-background:new 0 0 600 600;" xml:space="preserve">
<style type="text/css">
	.st0{display:none;opacity:0.45;}
	.st1{display:inline;fill:#FFFFFF;}
	.st2{display:inline;}
	.st3{fill:none;}
	.st4{fill:url(#SVGID_1_);}
	.st5{fill:url(#SVGID_00000083777967229055196070000008386992576943846558_);}
	.st6{fill:url(#SVGID_00000096059405595004535080000012306184943077196207_);}
	.st7{fill:url(#SVGID_00000093872140447009520460000007327900742305201854_);}
	.st8{fill:url(#SVGID_00000007413134680363550960000010287954630355938191_);}
	.st9{fill:url(#SVGID_00000152231479467110392610000000380413326437234617_);}
	.st10{fill:url(#SVGID_00000035520852298722322400000011831495974261307047_);}
	.st11{fill:url(#SVGID_00000131333094861948070340000011470887275733934777_);}
	.st12{fill:url(#SVGID_00000098928361264595445820000001512572494521957290_);}
</style>
<g id="Layer_1" class="st0">
	<circle class="st1" cx="498.9" cy="178.6" r="4.6"/>
	<path class="st1" d="M329.2,160.1c0.5-17-7.9-40-21.6-61.3C274.9,48,209.1,27.3,154.9,51.2c-53,23.5-83.6,74-78.1,132.7
		c3,31.7,18.3,57.3,43.3,77c15.4,12.1,33,18.9,51.8,23.6c35.7,9,69.9,4,100.4-15.4C308.3,246.3,328.7,212.9,329.2,160.1z M156.8,301
		c-4,13.4-10,26.1-18.3,38.1c-13.5,19.7-31.7,33.5-52.8,43.8C71.2,390,58.4,399,47.5,411.3c-28.6,32.2-35.9,81.4-6.4,118.7
		c18,22.7,41.9,32.5,70.1,28.2c42.1-6.4,70.8-45.5,66.1-87.8c-1.9-17.3-11-29.2-24.9-32.8c-6.9-1.8-12.5,0.8-17.1,5.7
		c-4.4,4.6-4.9,10.1-2,15.7c3.6,7,3.8,14.3,3.1,21.9c-1.7,18-16.6,28.5-29.6,29.9c-17,1.9-29.5-7.7-33.8-25
		c-3.4-13.7,0.1-26.1,7.5-37.5c8.4-12.9,20.3-21.8,34-28.6c28.6-14.1,51.5-34.3,67-62.8c8.3-15.4,11.9-31.5,11-48.3
		C180.8,306.1,169.1,303.6,156.8,301z M212.3,309.1c-0.8,9.5-1.3,19.7,1.8,29.8c6.4,20.4,18.8,36.9,33.3,52.2
		c13.4,14.2,30.5,23,47.1,32.4c10.3,5.9,19.4,13,26.8,22.1c11.3,14,14.4,29.2,7.7,46.7c-8.3,21.6-38.6,25.9-54.1,6.5
		c-9.4-11.7-10.8-25-5.7-39.1c3.9-10.7,0.1-18.8-10.3-22c-5.7-1.7-10.9,0-15.6,3c-11.4,7.4-16.8,18.3-17.6,31.4
		c-1.4,22.1,5,41.7,19.3,58.8c33.4,39.9,100,40,127.4-17.6c17.4-36.6,6.6-74.6-18.6-104.4c-11.7-13.9-27.3-21.8-43-30
		c-29.9-15.6-53.3-37.4-62.5-71.4c-0.5-2-1.4-3.9-1.6-4.4C234.9,305.1,223.9,307,212.3,309.1z M264.9,297.3
		c8.9,26.2,32.7,54.5,65.2,68.5c34.1,14.7,67.9,17.2,101.4-1.1c18.5-10.1,32.1-24.8,38.4-45.3c2-6.6,2.8-13.7,3.5-20.6
		c1.1-10.6,0.4-21-5-30.5c-6.7-11.6-23.3-14.4-33.1-5.9c-6.2,5.4-5.9,12.1-4.6,19.3c3.9,20.9-10,41.3-30.9,45.4
		c-19.4,3.8-37.9,1.2-55-8.6c-10.4-5.9-20.2-12.9-30.3-19.3c-8.6-5.5-15.4-12.6-20.1-21.1C284.7,284.4,275,290.7,264.9,297.3z
		 M137.7,295.6c-9.1-6-18-12.1-27.1-17.8c-1-0.6-4,0.2-4.6,1.3c-6.2,10.3-14.9,18.1-24,25.8c-19.8,16.7-42.2,25-68.1,23
		C-7.3,326.3-22,313.5-24.9,294c-0.8-5.8,0.2-11.9,0.6-17.9c0.5-7.2-2.1-12.7-8.5-16.2c-6.8-3.7-13.5-4.3-20.3,0.1
		c-7.7,4.9-12,12.1-13.3,20.8c-4.8,31.8,7.2,57.9,31.4,77.1c26,20.7,56.5,25.1,88.4,15.3c21.7-6.7,41.5-16.9,57.7-33.4
		C123.8,327.1,133.1,312.5,137.7,295.6z M307.3,268.8c3.4,3.9,6.7,7.3,9.6,10.8c4.1,5,9.4,6.9,15.6,5.7c10.4-2,21-3.7,31.1-6.8
		c8.5-2.6,17.2-6,24.3-11.1c19.7-14.2,33.2-32.2,35.5-57.9c2.3-25.7-10.8-53.6-33.2-65.1c-3.2-1.7-6.7-2.9-10.3-3.8
		c-9.2-2.4-17.9,1.5-21.5,9.2c-3.5,7.4-0.9,15.4,6.9,21.2c19.2,14.3,19.9,38.4,1.8,54.1c-9,7.8-19.7,10.8-31.2,11.8
		c-4.5,0.4-7.6,1.8-9.5,6.5c-1.7,4.2-4.8,8-7.6,11.6C315.3,259.8,311.2,264.2,307.3,268.8z M95.1,266.9c-0.3-0.5-0.7-1.6-1.3-2.5
		c-5.6-8-11.1-16.2-17.1-23.9c-1.4-1.8-4.7-2.7-7.2-3.1c-6.1-1.1-12.6-0.9-18.5-2.6c-14.4-4.4-22.6-15.1-25.2-29.5
		c-2.5-14.1,1.2-26.4,13.9-34.9c1.4-0.9,2.7-2,3.9-3.1c6.5-6.4,6.2-16.9-1.1-22.4c-6.3-4.8-13.4-6.4-21.2-3.6
		C10.9,144.7,3.1,151.7-3.5,160c-16.9,21.5-17.3,45.5-9.1,70.1c12.6,37.7,53.7,56.6,87.7,55.6c2.1-0.1,4.7-1.6,6.3-3.3
		C86.1,277.6,90.4,272.3,95.1,266.9z"/>
	<path class="st2" d="M329.2,160.1c-0.5,52.7-20.9,86.1-56.8,109c-30.5,19.4-64.7,24.4-100.4,15.4c-18.8-4.7-36.4-11.5-51.8-23.6
		c-25-19.7-40.3-45.3-43.3-77c-5.6-58.7,25.1-109.2,78.1-132.7c54.1-24,119.9-3.3,152.7,47.6C321.3,120.1,329.7,143.2,329.2,160.1z
		 M116.5,133.7c0.8,5.4,4.8,8.7,9.1,6.4c3.8-2.1,6.9-5.5,9.9-8.7c5-5.3,9.4-11.2,14.5-16.4c4.7-4.7,10-8.8,14.9-13.3
		c1-0.9,2-2.5,2-3.7c-0.1-8.1-7.4-12.2-14.4-8.4c-11.5,6.2-19.8,15.8-27.2,26C121.3,120.8,119.3,127.5,116.5,133.7z M128.9,172.2
		c-0.2,0-0.3,0-0.5,0c0-2.3,0.2-4.7,0-7c-0.9-7-3.9-9.9-11.3-11.1c-3.9-0.6-8.4,2.4-10.7,7.5c-3.2,6.9-3.7,14.1-1.7,21.4
		c1.5,5.6,6.2,8.4,12.8,8c5.7-0.3,9.2-3.2,10.3-8.9C128.4,178.8,128.6,175.5,128.9,172.2z M154.8,207.8c-8.3,0-15.1,6.3-15.1,14.1
		c0,8.1,8.1,16.1,16.1,16.1c8.2-0.1,14.5-6.8,14.4-15.4C170.1,213.7,163.8,207.8,154.8,207.8z M249.3,238c8.3,0.1,14.7-6.7,14.9-16
		c0.2-8-6.1-14.5-14.4-14.7c-8.2-0.2-15.2,6.6-15.3,15C234.4,230.8,241.1,237.9,249.3,238z M169.4,84.6c0,5.8,2.8,10.4,6.2,10.4
		c6.9,0,10.8-3.3,10.8-9c0-5.6-4.4-10.3-9.5-10.1C172.4,75.9,169.4,79.4,169.4,84.6z"/>
	<path class="st2" d="M156.8,301c12.3,2.6,24,5.1,35.9,7.7c0.9,16.8-2.7,32.9-11,48.3c-15.4,28.5-38.3,48.7-67,62.8
		c-13.7,6.8-25.6,15.6-34,28.6c-7.4,11.4-10.9,23.9-7.5,37.5c4.3,17.3,16.8,26.9,33.8,25c13-1.5,28-11.9,29.6-29.9
		c0.7-7.6,0.4-15-3.1-21.9c-2.9-5.6-2.4-11.1,2-15.7c4.6-4.9,10.1-7.5,17.1-5.7c13.9,3.5,23,15.4,24.9,32.8
		c4.6,42.3-24.1,81.4-66.1,87.8c-28.2,4.3-52.1-5.5-70.1-28.2c-29.5-37.3-22.3-86.5,6.4-118.7C58.4,399,71.2,390,85.7,382.9
		c21.1-10.4,39.3-24.2,52.8-43.8C146.7,327.1,152.8,314.3,156.8,301z"/>
	<path class="st2" d="M212.3,309.1c11.6-2,22.6-4,34.4-6.1c0.2,0.6,1.1,2.4,1.6,4.4c9.2,34,32.6,55.7,62.5,71.4
		c15.7,8.2,31.3,16.2,43,30c25.2,29.9,36,67.9,18.6,104.4c-27.4,57.6-94.1,57.5-127.4,17.6c-14.3-17-20.6-36.7-19.3-58.8
		c0.8-13.2,6.3-24.1,17.6-31.4c4.7-3.1,10-4.8,15.6-3c10.4,3.2,14.2,11.3,10.3,22c-5.1,14.1-3.7,27.3,5.7,39.1
		c15.5,19.3,45.8,15.1,54.1-6.5c6.7-17.5,3.5-32.7-7.7-46.7c-7.4-9.1-16.5-16.3-26.8-22.1c-16.6-9.4-33.7-18.3-47.1-32.4
		c-14.5-15.3-26.9-31.7-33.3-52.2C210.9,328.7,211.4,318.5,212.3,309.1z"/>
	<path class="st2" d="M264.9,297.3c10-6.5,19.7-12.9,29.4-19.2c4.7,8.5,11.5,15.6,20.1,21.1c10.1,6.4,19.9,13.4,30.3,19.3
		c17.1,9.8,35.6,12.4,55,8.6c20.9-4.1,34.8-24.5,30.9-45.4c-1.3-7.2-1.7-13.9,4.6-19.3c9.8-8.5,26.5-5.7,33.1,5.9
		c5.5,9.5,6.2,20,5,30.5c-0.7,6.9-1.5,14-3.5,20.6c-6.3,20.4-19.9,35.2-38.4,45.3c-33.5,18.3-67.3,15.7-101.4,1.1
		C297.6,351.8,273.9,323.5,264.9,297.3z"/>
	<path class="st2" d="M137.7,295.6c-4.6,16.9-13.9,31.4-26.5,44.2c-16.2,16.5-36,26.7-57.7,33.4c-31.9,9.8-62.4,5.4-88.4-15.3
		c-24.2-19.2-36.2-45.3-31.4-77.1c1.3-8.7,5.6-15.9,13.3-20.8c6.8-4.4,13.5-3.8,20.3-0.1c6.4,3.5,9,9,8.5,16.2
		c-0.4,6-1.5,12.1-0.6,17.9c2.8,19.5,17.6,32.3,38.7,33.9c25.9,2,48.3-6.3,68.1-23c9.1-7.7,17.8-15.5,24-25.8c0.6-1,3.7-1.9,4.6-1.3
		C119.7,283.6,128.6,289.6,137.7,295.6z"/>
	<path class="st2" d="M307.3,268.8c3.9-4.5,7.9-8.9,11.6-13.6c2.8-3.7,5.9-7.4,7.6-11.6c1.9-4.7,5-6.1,9.5-6.5
		c11.5-1,22.2-4,31.2-11.8c18.2-15.7,17.4-39.8-1.8-54.1c-7.8-5.8-10.4-13.9-6.9-21.2c3.7-7.8,12.4-11.6,21.5-9.2
		c3.5,0.9,7,2.1,10.3,3.8c22.4,11.5,35.4,39.3,33.2,65.1c-2.3,25.8-15.8,43.7-35.5,57.9c-7.1,5.1-15.9,8.5-24.3,11.1
		c-10.1,3.1-20.7,4.8-31.1,6.8c-6.2,1.2-11.5-0.7-15.6-5.7C314,276,310.8,272.6,307.3,268.8z"/>
	<path class="st2" d="M95.1,266.9c-4.7,5.4-9,10.6-13.7,15.5c-1.6,1.6-4.1,3.2-6.3,3.3c-33.9,1-75-18-87.7-55.6
		c-8.2-24.6-7.8-48.6,9.1-70.1c6.5-8.3,14.4-15.2,24.7-18.9c7.8-2.8,14.9-1.2,21.2,3.6c7.2,5.5,7.6,16,1.1,22.4
		c-1.2,1.2-2.5,2.2-3.9,3.1c-12.7,8.4-16.4,20.8-13.9,34.9c2.6,14.4,10.8,25.1,25.2,29.5c5.9,1.8,12.4,1.6,18.5,2.6
		c2.6,0.5,5.8,1.3,7.2,3.1c6,7.7,11.5,15.9,17.1,23.9C94.4,265.3,94.8,266.4,95.1,266.9z"/>
	<path class="st1" d="M116.5,133.7c2.8-6.1,4.8-12.9,8.7-18.2c7.4-10.3,15.8-19.8,27.2-26c7-3.8,14.3,0.4,14.4,8.4
		c0,1.3-1,2.8-2,3.7c-4.9,4.5-10.2,8.6-14.9,13.3c-5.1,5.2-9.5,11.1-14.5,16.4c-3,3.2-6.1,6.6-9.9,8.7
		C121.3,142.4,117.3,139.1,116.5,133.7z"/>
	<path class="st1" d="M128.9,172.2c-0.4,3.3-0.5,6.6-1.2,9.9c-1.1,5.8-4.6,8.6-10.3,8.9c-6.5,0.4-11.3-2.4-12.8-8
		c-2-7.3-1.4-14.5,1.7-21.4c2.3-5.1,6.9-8.1,10.7-7.5c7.4,1.2,10.4,4,11.3,11.1c0.3,2.3,0,4.6,0,7
		C128.6,172.2,128.8,172.2,128.9,172.2z"/>
	<path class="st1" d="M154.8,207.8c9.1,0,15.3,6,15.4,14.7c0.1,8.6-6.1,15.3-14.4,15.4c-8,0.1-16.1-8-16.1-16.1
		C139.7,214.1,146.4,207.8,154.8,207.8z"/>
	<path class="st1" d="M249.3,238c-8.2-0.1-14.9-7.2-14.8-15.7c0.1-8.4,7.1-15.3,15.3-15c8.3,0.2,14.6,6.7,14.4,14.7
		C264,231.3,257.6,238.2,249.3,238z"/>
	<path class="st1" d="M169.4,84.6c0-5.2,3-8.7,7.5-8.8c5.1-0.1,9.5,4.5,9.5,10.1c0,5.8-3.8,9-10.8,9C172.2,95,169.4,90.4,169.4,84.6
		z"/>
</g>
<g id="Layer_2">
	<line class="st3" x1="607" y1="306" x2="682.2" y2="304.6"/>
	<g>
		<linearGradient id="SVGID_1_" gradientUnits="userSpaceOnUse" x1="399.6693" y1="265.7829" x2="184.8264" y2="72.9079">
			<stop  offset="0" style="stop-color:#FFFFFF"/>
			<stop  offset="0" style="stop-color:#AA4D9C"/>
			<stop  offset="0.5499" style="stop-color:#B66AAA"/>
		</linearGradient>
		<path class="st4" d="M295.8,30.3c-89,0-132.9,64.8-129.1,144.5c4.1,83.7,57.8,144.5,129.1,144.5s123.5-66.6,129.1-144.5
			C430.6,95.2,375.5,30.3,295.8,30.3z M249.6,93.1c2.8,0,5,2.3,5,5c0,2.8-2.3,5-5,5c-2.8,0-5-2.3-5-5
			C244.5,95.4,246.8,93.1,249.6,93.1z M227.3,101.5c5.8,0,10.5,4.7,10.5,10.5s-4.7,10.5-10.5,10.5s-10.5-4.7-10.5-10.5
			S221.5,101.5,227.3,101.5z M211.8,139.3c-2.8,0-5-2.3-5-5c0-2.8,2.3-5,5-5s5,2.3,5,5C216.8,137,214.5,139.3,211.8,139.3z
			 M235,227.7c-10.3,0-18.6-8.3-18.6-18.6s8.3-18.6,18.6-18.6s18.6,8.3,18.6,18.6S245.3,227.7,235,227.7z M337.3,266.1
			c-4.9,15-19.9,26.7-41.4,26.7c-24.7,0-38-16.2-42.2-24.1c-2.1-4-1.6-8.7,1-10.7c2.6-2.1,6.3-2.1,8.7,0.7
			c3.7,4.3,10.9,15.3,32.5,16c20,0.7,26.8-8.6,31-15.3c1-1.6,3.6-4.9,8.4-3C338,257.4,338.8,261.6,337.3,266.1z M361.8,227.7
			c-10.3,0-18.6-8.3-18.6-18.6s8.3-18.6,18.6-18.6s18.6,8.3,18.6,18.6S372,227.7,361.8,227.7z"/>
		
			<linearGradient id="SVGID_00000121251236515429688570000009306753338550644132_" gradientUnits="userSpaceOnUse" x1="166.6881" y1="213.0396" x2="415.4407" y2="213.0396">
			<stop  offset="0" style="stop-color:#FFFFFF"/>
			<stop  offset="0" style="stop-color:#F4E8F2"/>
			<stop  offset="0" style="stop-color:#E3C4DE"/>
			<stop  offset="0" style="stop-color:#D3A4CC"/>
			<stop  offset="0" style="stop-color:#C688BD"/>
			<stop  offset="0" style="stop-color:#BC72B1"/>
			<stop  offset="0" style="stop-color:#B461A7"/>
			<stop  offset="0" style="stop-color:#AE56A1"/>
			<stop  offset="0" style="stop-color:#AB4F9D"/>
			<stop  offset="0" style="stop-color:#AA4D9C"/>
			<stop  offset="0.5499" style="stop-color:#B66AAA"/>
		</linearGradient>
		<circle style="fill:url(#SVGID_00000121251236515429688570000009306753338550644132_);" cx="234.1" cy="213" r="5"/>
		
			<linearGradient id="SVGID_00000052818723789311233570000008844078454879753130_" gradientUnits="userSpaceOnUse" x1="271.9476" y1="213.0396" x2="440.1078" y2="213.0396">
			<stop  offset="0" style="stop-color:#FFFFFF"/>
			<stop  offset="0" style="stop-color:#F4E8F2"/>
			<stop  offset="0" style="stop-color:#E3C4DE"/>
			<stop  offset="0" style="stop-color:#D3A4CC"/>
			<stop  offset="0" style="stop-color:#C688BD"/>
			<stop  offset="0" style="stop-color:#BC72B1"/>
			<stop  offset="0" style="stop-color:#B461A7"/>
			<stop  offset="0" style="stop-color:#AE56A1"/>
			<stop  offset="0" style="stop-color:#AB4F9D"/>
			<stop  offset="0" style="stop-color:#AA4D9C"/>
			<stop  offset="0.5499" style="stop-color:#B66AAA"/>
		</linearGradient>
		<circle style="fill:url(#SVGID_00000052818723789311233570000008844078454879753130_);" cx="360.8" cy="213" r="5"/>
	</g>
	
		<linearGradient id="SVGID_00000070821529468637511450000014093746459010620049_" gradientUnits="userSpaceOnUse" x1="356.9881" y1="360.3994" x2="560.6433" y2="360.3994">
		<stop  offset="0" style="stop-color:#FFFFFF"/>
		<stop  offset="4.441858e-04" style="stop-color:#AA4D9C"/>
		<stop  offset="0.5499" style="stop-color:#B66AAA"/>
		<stop  offset="1" style="stop-color:#AA4D9C"/>
	</linearGradient>
	<path style="fill:url(#SVGID_00000070821529468637511450000014093746459010620049_);" d="M368.3,335.9c5.6-3.7,11.1-7.2,16.6-10.8
		c2.4-1.6,5.6-1,7.2,1.3c10.6,14.6,46.6,54.9,87.2,37.6c15.8-6.7,23.6-18.4,26.4-38.8c2.8-20.6,23.3-18.6,32.2-11.4
		c20,16,10.4,61.9-27,85.8c-46.9,29.9-111,4.6-144.5-56.6C365.1,340.5,365.9,337.4,368.3,335.9z"/>
	
		<linearGradient id="SVGID_00000008869799987535759470000014723665266677957281_" gradientUnits="userSpaceOnUse" x1="409.2272" y1="253.8882" x2="547.0961" y2="253.8882">
		<stop  offset="0" style="stop-color:#FFFFFF"/>
		<stop  offset="4.441858e-04" style="stop-color:#AA4D9C"/>
		<stop  offset="0.5499" style="stop-color:#B66AAA"/>
		<stop  offset="1" style="stop-color:#AA4D9C"/>
	</linearGradient>
	<path style="fill:url(#SVGID_00000008869799987535759470000014723665266677957281_);" d="M414.3,297.5c3.2-3.9,6.3-7.7,9.6-12.9
		c1.4-2.2,4.1-3.3,6.7-2.7c46.6,12.5,63.8-34.9,50.4-68c-6.9-16.9,18.3-29.4,29.5-16.5c17.1,18.8,26.4,85.7-25.2,111.2
		c-24,11.9-55.4,6.3-69.5-2.1C412.6,304.7,411.9,300.4,414.3,297.5z"/>
	
		<linearGradient id="SVGID_00000028306358142765036440000003780198043587625363_" gradientUnits="userSpaceOnUse" x1="27.6734" y1="356.0999" x2="230.2718" y2="356.0999">
		<stop  offset="0" style="stop-color:#FFFFFF"/>
		<stop  offset="4.441858e-04" style="stop-color:#AA4D9C"/>
		<stop  offset="0.5499" style="stop-color:#B66AAA"/>
		<stop  offset="1" style="stop-color:#AA4D9C"/>
	</linearGradient>
	<path style="fill:url(#SVGID_00000028306358142765036440000003780198043587625363_);" d="M223.1,331.6c-5.6-3.7-11.1-7.2-16.6-10.8
		c-2.4-1.6-5.6-1-7.2,1.3c-10.6,14.6-46.6,54.9-87.2,37.6c-15.8-6.7-23.6-18.4-26.4-38.8c-2.8-20.6-23.3-18.6-32.2-11.4
		c-20,16-10.4,61.9,27,85.8c46.9,29.9,111,4.6,144.5-56.6C226.3,336.2,225.5,333.1,223.1,331.6z"/>
	
		<linearGradient id="SVGID_00000182504563993254505610000012435295981511535013_" gradientUnits="userSpaceOnUse" x1="46.6745" y1="253.8882" x2="177.0344" y2="253.8882">
		<stop  offset="0" style="stop-color:#FFFFFF"/>
		<stop  offset="4.441858e-04" style="stop-color:#AA4D9C"/>
		<stop  offset="0.5499" style="stop-color:#B66AAA"/>
		<stop  offset="1" style="stop-color:#AA4D9C"/>
	</linearGradient>
	<path style="fill:url(#SVGID_00000182504563993254505610000012435295981511535013_);" d="M176.3,297.5c-3.2-3.9-6.3-7.7-9.6-12.9
		c-1.4-2.2-4.1-3.3-6.7-2.7c-46.6,12.5-63.8-34.9-50.4-68c6.9-16.9-18.3-29.4-29.5-16.5c-17.1,18.8-26.4,85.7,25.2,111.2
		c24,11.9,55.4,6.3,69.5-2.1C177.9,304.7,178.7,300.4,176.3,297.5z"/>
	
		<linearGradient id="SVGID_00000023255510671582149420000009278734004935599779_" gradientUnits="userSpaceOnUse" x1="289.0667" y1="456.5068" x2="473.6363" y2="456.5068">
		<stop  offset="0" style="stop-color:#FFFFFF"/>
		<stop  offset="4.441858e-04" style="stop-color:#AA4D9C"/>
		<stop  offset="0.5499" style="stop-color:#B66AAA"/>
		<stop  offset="1" style="stop-color:#AA4D9C"/>
	</linearGradient>
	<path style="fill:url(#SVGID_00000023255510671582149420000009278734004935599779_);" d="M306.8,349.1c7.6-1.3,15-2.6,22.6-4
		c2.1-0.4,4.1,0.9,4.7,2.9c17.5,56.8,56.2,51.8,90.5,86.8c36.5,37.3,29.7,86.1,3,112.7c-25.1,25-70.5,30.4-100.6-2.7
		c-23.8-26.2-21.3-62.5-2.2-82.3c9.8-10.2,38.7-0.7,30.9,16.5c-20,44.1,30.5,62.4,47.6,27.4c0.1-0.2,0.2-0.4,0.2-0.6
		c17.5-50.6-44.9-59.2-69.9-86.1c-17.1-17.7-33-41.4-30.4-66.8C303.5,350.9,305,349.4,306.8,349.1z"/>
	
		<linearGradient id="SVGID_00000088104957758652994510000018041939929976858756_" gradientUnits="userSpaceOnUse" x1="472.8149" y1="456.3385" x2="619.6956" y2="456.3385" gradientTransform="matrix(-1 0 0 1 752.9734 0)">
		<stop  offset="0" style="stop-color:#FFFFFF"/>
		<stop  offset="4.441858e-04" style="stop-color:#AA4D9C"/>
		<stop  offset="0.5499" style="stop-color:#B66AAA"/>
		<stop  offset="1" style="stop-color:#AA4D9C"/>
	</linearGradient>
	<path style="fill:url(#SVGID_00000088104957758652994510000018041939929976858756_);" d="M276.4,349.1c-7.6-1.3-15-2.6-22.6-4
		c-2.1-0.4-4.1,0.9-4.7,2.9c-17.5,56.8-56.2,51.8-90.5,86.8c-36.5,37.3-29.7,86.1-3,112.7c25.1,25,73.6,29.5,100.6-2.7
		c22.8-27.1,21.3-62.5,2.2-82.3c-9.8-10.2-38.7-0.7-30.9,16.5c20,44.1-30.5,62.4-47.6,27.4c-0.1-0.2-0.2-0.4-0.2-0.6
		c-17.5-50.6,44.9-59.2,69.9-86.1c17.1-17.7,33-41.4,30.4-66.8C279.7,350.9,278.3,349.4,276.4,349.1z"/>
</g>
</svg>
